<svg xmlns="http://www.w3.org/2000/svg" viewBox="0 0 720 390"><rect width="720" height="390" rx="24" fill="#fff"/><text x="28" y="45" font-family="sans-serif" font-size="28" font-weight="700">異常なコース状態からの救済</text><path d="M0 230Q250 180 720 220V390H0Z" fill="#9fdc78"/><path d="M280 190L510 125L550 175L320 245Z" fill="#aaa"/><g aria-label="golfer"><circle cx="118" cy="115" r="18" fill="#f1c7a5"/><path d="M101 105q17-28 37 0z" fill="#fff" stroke="#222" stroke-width="3"/><path d="M104 132q17-13 35 0l12 66h-54z" fill="#087ec1"/><path d="M100 198l-13 58M143 198l17 58" stroke="#d8c39e" stroke-width="13" stroke-linecap="round"/><path d="M87 256h-22M160 256h22" stroke="#222" stroke-width="7" stroke-linecap="round"/><path d="M102 145l-24 45M140 145l22 43" stroke="#f1c7a5" stroke-width="10" stroke-linecap="round"/><path d="M162 188l30 70" stroke="#333" stroke-width="4"/></g><circle cx="300" cy="250" r="10" fill="#111"/><ellipse cx="405" cy="265" rx="95" ry="45" fill="#efb09f" opacity=".65" stroke="#222" stroke-dasharray="8 6"/><path d="M300 250L405 265" stroke="#222" stroke-width="3"/><text x="278" y="292" font-family="sans-serif" font-size="16">完全に邪魔がなくなる一番近い場所</text><text x="350" y="320" font-family="sans-serif" font-size="16">→ 1クラブレングス以内</text><text x="28" y="365" font-family="sans-serif" font-size="17">原則無罰。救済後も障害が残らない場所を基準にします。</text></svg>