<svg xmlns="http://www.w3.org/2000/svg" viewBox="0 0 800 520"><defs><linearGradient id="sky" x2="0" y2="1"><stop stop-color="#bfe9ff"/><stop offset="1" stop-color="#eefaff"/></linearGradient><marker id="a" markerWidth="12" markerHeight="12" refX="10" refY="6" orient="auto"><path d="M0 0L12 6L0 12Z" fill="#24a76a"/></marker></defs><rect width="800" height="520" rx="28" fill="#fff"/><rect width="800" height="250" rx="28" fill="url(#sky)"/><path d="M0 250C160 210 270 255 390 230C520 205 655 220 800 180V520H0Z" fill="#72bd62"/><path d="M0 330C180 280 320 330 470 300C600 275 690 300 800 260V520H0Z" fill="#8bd174"/><path d="M410 395C485 315 590 310 675 385C600 455 490 470 410 395Z" fill="#24a76a" opacity=".2" stroke="#24a76a" stroke-width="5" stroke-dasharray="12 10"/><g transform="translate(220 205)"><circle r="34" fill="#f0c49a"/><path d="M-35-17Q0-62 42-20L30-5Q0-20-35-17Z" fill="#fff" stroke="#ddd" stroke-width="3"/><path d="M-31 38Q0 22 35 42L25 150H-25Z" fill="#1596d2"/><path d="M-22 150L-42 245M22 150L42 245" stroke="#26384b" stroke-width="24" stroke-linecap="round"/><path d="M-18 60L65 130M20 65L68 130" stroke="#f0c49a" stroke-width="18" stroke-linecap="round"/><line x1="68" y1="130" x2="112" y2="245" stroke="#555" stroke-width="5"/><circle cx="115" cy="250" r="8" fill="#fff" stroke="#333" stroke-width="2"/></g><path d="M350 330C410 300 455 320 500 355" fill="none" stroke="#24a76a" stroke-width="7" stroke-dasharray="12 10" marker-end="url(#a)"/><rect x="30" y="24" width="740" height="92" rx="18" fill="#fff" opacity=".96"/><rect x="30" y="24" width="12" height="92" rx="6" fill="#24a76a"/><text x="62" y="62" font-family="-apple-system,Noto Sans JP,sans-serif" font-size="27" font-weight="800">球をリプレース</text><text x="62" y="94" font-family="-apple-system,Noto Sans JP,sans-serif" font-size="18" font-weight="700" fill="#53606c">元の位置へ球を戻す</text><circle cx="500" cy="355" r="10" fill="#fff" stroke="#24a76a" stroke-width="5"/></svg>